<svg width="512" height="456.549" xmlns="http://www.w3.org/2000/svg" clip-rule="evenodd" fill-rule="evenodd" image-rendering="optimizeQuality" text-rendering="geometricPrecision" shape-rendering="geometricPrecision">

 <g>
  <title>Layer 1</title>
  <path id="svg_1" d="m463.044,117.283c-10.125,-26.729 -28.412,-47.537 -50.269,-60.578c-13.478,-8.048 -28.343,-13.125 -43.461,-14.808c-14.879,-1.655 -30.018,0.007 -44.284,5.407c-37.461,14.189 -50.601,41.912 -66.522,74.028c-3.422,6.887 -1.964,6.964 -5.893,0.078c-17.576,-30.87 -33.786,-63.684 -70.127,-75.725c-12.879,-4.26 -26.554,-5.408 -40.088,-3.845c-13.83,1.606 -27.546,6.028 -40.207,12.83c-25.068,13.485 -45.883,36.215 -55.382,64.916c-31.525,95.237 83.379,188.376 170.42,258.918c12.97,10.506 25.363,20.547 36.834,30.251c15.449,-13.288 32.356,-26.695 49.995,-40.687c87.815,-69.634 195.291,-154.872 158.984,-250.785zm-29.173,-95.842c29.483,17.589 54.094,45.531 67.663,81.351c46.924,123.973 -73.479,219.471 -171.871,297.485c-22.829,18.11 -44.418,35.228 -61.078,50.41c-7.626,7.478 -19.85,7.894 -27.969,0.711c-13.9,-12.323 -31.033,-26.201 -49.312,-41.01c-96.561,-78.26 -224.034,-181.58 -183.616,-303.688c12.956,-39.151 41.144,-70.042 75.028,-88.266c17.223,-9.259 35.989,-15.287 55.008,-17.491c19.337,-2.232 38.983,-0.556 57.65,5.619c22.047,7.302 42.601,20.751 59.55,41.271c16.316,-18.527 35.37,-31.35 55.614,-39.018c20.513,-7.759 42.13,-10.168 63.283,-7.816c20.913,2.324 41.453,9.337 60.05,20.442z" fill-rule="nonzero"/>
 </g>
</svg>