<svg width="512" height="456.549" xmlns="http://www.w3.org/2000/svg" clip-rule="evenodd" fill-rule="evenodd" image-rendering="optimizeQuality" text-rendering="geometricPrecision" shape-rendering="geometricPrecision">

 <g>
  <title>Layer 1</title>
  <path id="svg_1" d="m433.871,21.441c29.483,17.589 54.094,45.531 67.663,81.351c46.924,123.973 -73.479,219.471 -171.871,297.485c-22.829,18.11 -44.418,35.228 -61.078,50.41c-7.626,7.478 -19.85,7.894 -27.969,0.711c-13.9,-12.323 -31.033,-26.201 -49.312,-41.01c-96.561,-78.26 -224.034,-181.58 -183.616,-303.688c12.956,-39.151 41.144,-70.042 75.028,-88.266c17.223,-9.259 35.989,-15.287 55.008,-17.491c19.337,-2.232 38.983,-0.556 57.65,5.619c22.047,7.302 42.601,20.751 59.55,41.271c16.316,-18.527 35.37,-31.35 55.614,-39.018c20.513,-7.759 42.13,-10.168 63.283,-7.816c20.913,2.324 41.453,9.337 60.05,20.442z" fill-rule="nonzero"/>
 </g>
</svg>